<?xml version="1.0" encoding="UTF-8"?>
<svg version="1.1" xmlns="http://www.w3.org/2000/svg" width="1024" height="1024">
<path d="M0 0 C337.92 0 675.84 0 1024 0 C1024 337.92 1024 675.84 1024 1024 C686.08 1024 348.16 1024 0 1024 C0 686.08 0 348.16 0 0 Z " fill="#545454" transform="translate(0,0)"/>
<path d="M0 0 C4.36153362 2.82461225 7.00440591 6.53772379 9.8125 10.8125 C10.77497399 12.24550934 11.73858682 13.67775422 12.703125 15.109375 C13.22583984 15.88861328 13.74855469 16.66785156 14.28710938 17.47070312 C16.81395763 21.20191007 19.39833567 24.89215307 21.98120117 28.5847168 C24.04833606 31.54223518 26.10539332 34.50653245 28.16015625 37.47265625 C30.50042212 40.85072376 32.85962823 44.21304633 35.24609375 47.55859375 C36.16466255 48.87197637 37.08268004 50.18574484 38 51.5 C38.41515869 52.0679126 38.83031738 52.6358252 39.25805664 53.22094727 C42.02598761 57.24246358 42.4897334 60.17756635 42 65 C40.34860695 68.5386994 39.28394771 69.81070153 36 72 C32.82945196 72.81921458 30.17157 72.83028093 27 72 C23.73342595 69.44328919 21.42518744 66.34322399 19 63 C18.32195313 62.09121094 17.64390625 61.18242187 16.9453125 60.24609375 C12 53.42394578 12 53.42394578 12 51 C2.17082278 56.83651382 -7.61896865 62.7159088 -17.25 68.875 C-35.11299493 80.24661326 -53.57177009 90.5783426 -72.25439453 100.53320312 C-74.75775193 101.87058275 -77.25296958 103.22179774 -79.74609375 104.578125 C-93.52548184 112.02310338 -107.72621091 118.56822326 -122 125 C-122.61159973 125.27604065 -123.22319946 125.5520813 -123.85333252 125.83648682 C-141.83091482 133.93900065 -159.99742771 141.16835216 -178.57617188 147.77294922 C-181.77413645 148.91905375 -184.95922688 150.09395496 -188.140625 151.28515625 C-198.60303848 155.1938167 -209.04813241 158.61015171 -219.85400391 161.43212891 C-222.67205946 162.17783963 -225.47543878 162.97176126 -228.2800293 163.76635742 C-232.18052186 164.8667227 -236.09063683 165.93167553 -240 167 C-240.94359375 167.26039063 -241.8871875 167.52078125 -242.859375 167.7890625 C-269.11524955 174.99259731 -295.93603466 180.8476091 -323 184 C-324.13115234 184.13390137 -325.26230469 184.26780273 -326.42773438 184.40576172 C-330.17979291 184.84442295 -333.93310318 185.269343 -337.6875 185.6875 C-338.85853271 185.81930664 -340.02956543 185.95111328 -341.23608398 186.08691406 C-347.85404171 186.79199334 -354.34484178 187.17859221 -361 187 C-360.98952637 187.69931641 -360.97905273 188.39863281 -360.96826172 189.11914062 C-360.76002429 205.5145435 -361.09452973 221.81411778 -361.9375 238.1875 C-362.00284943 239.47237305 -362.00284943 239.47237305 -362.06951904 240.78320312 C-362.49636559 249.06509879 -362.9766856 257.3255199 -363.77905273 265.58081055 C-365.73059182 286.94854627 -365.10945116 308.56777912 -365 330 C-364.22285645 328.9569873 -363.44571289 327.91397461 -362.64501953 326.83935547 C-357.17255875 319.4989827 -351.63853057 312.21374905 -346 305 C-341.60547607 299.37736465 -337.26350035 293.72264721 -333 288 C-328.23424252 281.60337193 -323.36151612 275.29775715 -318.43945312 269.02075195 C-315.23251915 264.91706095 -312.0805999 260.78075909 -308.98828125 256.58984375 C-308.32223877 255.68911133 -307.65619629 254.78837891 -306.9699707 253.86035156 C-305.68990516 252.12356169 -304.41594116 250.38225228 -303.14916992 248.63574219 C-295.14555239 237.78509682 -295.14555239 237.78509682 -289.62109375 236.40625 C-285.00652591 236.60437098 -281.66637952 236.88913253 -278 240 C-275.76749101 243.44807438 -275.60794032 246.56824313 -275.5 250.625 C-275.4484375 251.77226562 -275.396875 252.91953125 -275.34375 254.1015625 C-277.24884056 265.4187076 -286.58522146 273.10325471 -294.4375 280.75 C-295.55621307 281.85718998 -296.67405732 282.96525854 -297.79101562 284.07421875 C-298.87942471 285.14923147 -299.96860229 286.22346674 -301.05859375 287.296875 C-301.58125824 287.81165405 -302.10392273 288.32643311 -302.64242554 288.85681152 C-305.4222596 291.5637943 -308.26512428 294.03838775 -311.34765625 296.390625 C-312.66056641 297.68226563 -312.66056641 297.68226563 -314 299 C-313.69140873 303.33744292 -312.34707131 307.14670587 -310.8125 311.19140625 C-310.14263062 312.96330322 -310.14263062 312.96330322 -309.45922852 314.77099609 C-308.9735207 316.03510056 -308.48709464 317.29892926 -308 318.5625 C-307.62885574 319.53065643 -307.62885574 319.53065643 -307.25021362 320.51837158 C-301.14827857 336.42166413 -294.73591407 351.93823712 -286.75 367 C-273.7890888 391.49071757 -273.7890888 391.49071757 -276 403 C-278.0539786 408.14546174 -280.46041419 411.90946005 -285 415.125 C-288.34563893 416.10081135 -290.5478465 416.5876006 -294 416 C-299.9673547 411.58563002 -301.91584632 404.83850461 -304.578125 398.13671875 C-305.10095974 396.84420476 -305.62443057 395.55194792 -306.14849854 394.25993347 C-311.68904625 380.52754933 -316.88386482 366.66187478 -322.02233887 352.77514648 C-323.01601056 350.09501674 -324.01624224 347.41735328 -325.01641464 344.73964405 C-325.98657689 342.14046592 -326.95346774 339.54008116 -327.91925812 336.93927574 C-328.59587102 335.11837319 -329.27468936 333.29829062 -329.95355225 331.47822571 C-330.35527649 330.39075546 -330.75700073 329.30328522 -331.17089844 328.18286133 C-331.52553162 327.22664383 -331.88016479 326.27042633 -332.24554443 325.28523254 C-333 323 -333 323 -333 321 C-336.80391006 324.70672987 -340.31181726 328.57872994 -343.75 332.625 C-344.53334717 333.54261108 -344.53334717 333.54261108 -345.33251953 334.47875977 C-349.23995971 339.07009157 -353.07734698 343.71334498 -356.8671875 348.40234375 C-359 351 -359 351 -360.49743652 352.46563721 C-364.34416253 356.39615416 -365.68199199 359.1372945 -365.72964478 364.63520813 C-365.69718155 365.84638557 -365.69718155 365.84638557 -365.6640625 367.08203125 C-365.66828217 367.93625168 -365.67250183 368.79047211 -365.67684937 369.670578 C-365.68765825 372.38545104 -365.65978144 375.0978571 -365.625 377.8125 C-365.40803076 402.05447273 -365.40803076 402.05447273 -371.30615234 409.69116211 C-373.88063209 412.24779375 -376.46561857 413.38576985 -380 413.75 C-382.60388353 413.59037496 -383.73264636 413.21670956 -385.7734375 411.5625 C-390.32684997 406.40936979 -392.25210549 402.44358634 -392.265625 395.48828125 C-392.26820313 394.17021484 -392.27078125 392.85214844 -392.2734375 391.49414062 C-392.26924805 390.80296143 -392.26505859 390.11178223 -392.26074219 389.3996582 C-392.25040975 387.39211197 -392.26148194 385.38449035 -392.2734375 383.37695312 C-392.28228804 375.30550754 -391.80644816 367.35287994 -391.078125 359.31640625 C-389.3974621 340.20398975 -389.13109485 321.00328831 -388.59119034 301.83271408 C-388.43756489 296.42878059 -388.27669522 291.02506405 -388.1159668 285.62133789 C-388.05148938 283.45143154 -387.98702098 281.28152493 -387.92256165 279.11161804 C-387.89076624 278.04160742 -387.85897083 276.97159679 -387.82621193 275.86916161 C-387.73081756 272.64849509 -387.63624892 269.42780531 -387.54191589 266.20710754 C-387.01595613 248.28209777 -386.4321841 230.35949251 -385.8125 212.4375 C-385.7697998 211.19599182 -385.72709961 209.95448364 -385.68310547 208.675354 C-385.45753275 202.11682721 -385.23005307 195.55837114 -385 189 C-385.85275261 189.00999275 -385.85275261 189.00999275 -386.72273254 189.02018738 C-452.44251765 189.75268537 -514.51559858 183.64899645 -578.3125 167.875 C-579.12659332 167.6751651 -579.94068665 167.4753302 -580.77944946 167.2694397 C-591.04963704 164.73373121 -601.07896881 161.77158986 -611.07861328 158.31811523 C-614.53846692 157.13135958 -618.02625778 156.12595871 -621.5625 155.1875 C-678.16804411 139.2732556 -733.31429643 111.18210115 -784 82 C-785.09610596 81.36892334 -785.09610596 81.36892334 -786.21435547 80.72509766 C-795.45760426 75.3826287 -804.59326538 69.85739596 -813.72891235 64.33361816 C-814.9784085 63.57834178 -816.22837728 62.82384667 -817.47885132 62.07019043 C-823.80882846 58.25234214 -830.07071995 54.42522514 -836 50 C-834.5199653 45.83740241 -832.4553071 42.41490692 -830 38.75 C-829.29875 37.69296875 -828.5975 36.6359375 -827.875 35.546875 C-826 33 -826 33 -824 32 C-821.99829102 33.00952148 -821.99829102 33.00952148 -819.50390625 34.62109375 C-818.09806274 35.51755615 -818.09806274 35.51755615 -816.66381836 36.43212891 C-815.6403833 37.09390137 -814.61694824 37.75567383 -813.5625 38.4375 C-811.36884125 39.83203191 -809.17346444 41.22386417 -806.9765625 42.61328125 C-806.4060466 42.97456116 -805.8355307 43.33584106 -805.24772644 43.70806885 C-794.65561254 50.39634455 -783.82035902 56.69046383 -773 63 C-771.58098389 63.83047852 -771.58098389 63.83047852 -770.13330078 64.67773438 C-743.61233846 80.14235146 -716.17721816 94.08449647 -687.95385742 106.16271973 C-685.89923496 107.04318052 -683.84699942 107.92905498 -681.79492188 108.81542969 C-649.17199085 122.8776236 -616.05736989 134.91622722 -581.6328125 143.78515625 C-577.88411615 144.75637382 -574.16154531 145.80145866 -570.44042969 146.87280273 C-549.96331713 152.73612219 -528.9871443 156.47980972 -508 160 C-506.9989624 160.17023682 -505.9979248 160.34047363 -504.96655273 160.51586914 C-495.98694469 161.97667004 -486.96837488 162.91326075 -477.91821289 163.80493164 C-475.33356172 164.0604181 -472.74979889 164.32378803 -470.16601562 164.58789062 C-453.55085082 166.26119948 -437.04108643 167.17454784 -420.34057617 167.13037109 C-417.93466929 167.12499367 -415.52894833 167.13037137 -413.12304688 167.13671875 C-405.2710062 167.14216036 -397.42305128 167.02853644 -389.578125 166.68359375 C-388.87546005 166.66213287 -388.1727951 166.640672 -387.44883728 166.61856079 C-382.33249674 166.34784247 -379.72924766 165.04744769 -376.33984375 161.31640625 C-375 160 -375 160 -371.875 159.375 C-368.33642491 160.14425545 -366.54498999 161.45501001 -364 164 C-364 164.66 -364 165.32 -364 166 C-363.3090625 165.84144531 -362.618125 165.68289063 -361.90625 165.51953125 C-358.740198 164.9535569 -355.71460515 164.81195927 -352.5 164.6875 C-332.74689769 163.61018525 -313.13848955 159.9565992 -293.6875 156.5 C-292.87296356 156.35665222 -292.05842712 156.21330444 -291.21920776 156.06561279 C-281.5462376 154.35481712 -272.01397712 152.36692393 -262.50463867 149.90185547 C-259.63129179 149.16245154 -256.75980693 148.47228158 -253.86328125 147.83203125 C-203.43428247 136.62074 -154.37228635 116.47969727 -108 94 C-107.34217529 93.68204468 -106.68435059 93.36408936 -106.0065918 93.03649902 C-88.43082372 84.53580764 -71.33557522 75.58019233 -54.59155273 65.51904297 C-51.97066756 63.98280674 -49.31703681 62.53079175 -46.640625 61.09375 C-40.30333867 57.66967511 -34.18650401 53.91415982 -28.0625 50.125 C-26.97259766 49.45597656 -25.88269531 48.78695312 -24.75976562 48.09765625 C-18.17825169 44.0384694 -11.73109739 39.8468065 -5.36108398 35.46435547 C-3 34 -3 34 -1 34 C-1.35827881 33.4652002 -1.71655762 32.93040039 -2.08569336 32.37939453 C-3.70416398 29.96206509 -5.32085235 27.54354893 -6.9375 25.125 C-7.50146484 24.28324219 -8.06542969 23.44148438 -8.64648438 22.57421875 C-9.45375977 21.36572266 -9.45375977 21.36572266 -10.27734375 20.1328125 C-10.77484131 19.38918457 -11.27233887 18.64555664 -11.78491211 17.87939453 C-14.27458755 14.02857646 -14.64872075 10.51509643 -14 6 C-10.45210677 0.44163393 -6.57667194 -1.29163467 0 0 Z " fill="#FDFDFD" transform="translate(939,195)"/>
<path d="M0 0 C0.7145359 -0.0048856 1.42907181 -0.00977119 2.16526031 -0.01480484 C4.52717253 -0.02918145 6.88902912 -0.03600511 9.25097656 -0.04199219 C10.92185499 -0.04895095 12.59273308 -0.05599199 14.26361084 -0.06311035 C19.63961041 -0.08262232 25.01557052 -0.08729252 30.39160156 -0.08886719 C31.7592717 -0.0897509 31.7592717 -0.0897509 33.15457153 -0.09065247 C59.63756306 -0.10277584 85.91628582 0.23041215 112.28375244 2.92681885 C115.6921723 3.26553449 119.10371027 3.56639839 122.51544189 3.86962891 C139.33175525 5.36870311 156.06373733 6.98786517 172.64941406 10.23144531 C176.43375934 10.97053918 180.21856555 11.526976 184.04003906 12.04003906 C193.14697871 13.31134669 202.13257891 15.14602124 211.14160156 16.97363281 C212.02289734 17.15132202 212.90419312 17.32901123 213.81219482 17.51208496 C248.63590624 24.53576612 248.63590624 24.53576612 264.32128906 29.20800781 C267.90717946 30.23736929 271.51270453 31.10856241 275.14160156 31.97363281 C284.52432273 34.2429151 293.6589227 37.27614369 302.83276367 40.26220703 C305.78689948 41.2076332 308.75163394 42.11209346 311.71972656 43.01269531 C362.34682962 58.53987858 412.27476047 78.47771227 459.64160156 102.16113281 C456.67160156 108.43113281 453.70160156 114.70113281 450.64160156 121.16113281 C446.39677525 119.74619071 442.73930546 118.35074981 438.75878906 116.43066406 C437.03680298 115.60888672 437.03680298 115.60888672 435.2800293 114.77050781 C434.3643367 114.33254883 434.3643367 114.33254883 433.43014526 113.88574219 C394.1202728 95.14830589 353.32041882 79.65839714 311.92414856 66.21427917 C308.25444836 65.02171986 304.59197773 63.81102394 300.93725586 62.57324219 C293.28947665 59.98526756 285.70831107 57.46151814 277.82910156 55.66113281 C272.03332075 54.27799762 266.30026111 52.79730733 260.59350586 51.08276367 C230.81243417 42.16593777 199.75678577 36.47389268 169.05566406 31.84082031 C166.16769596 31.40439938 163.29057397 30.93077191 160.41503906 30.41894531 C146.76354284 28.03366528 133.00696106 26.88175445 119.20838928 25.73722839 C114.42893315 25.33410939 109.66594867 24.84413523 104.89941406 24.30566406 C37.71526054 17.12305221 -33.83281506 20.75757006 -100.22216797 32.60449219 C-103.75272245 33.23112026 -107.2878463 33.82806825 -110.82324219 34.42675781 C-126.31871347 37.08728019 -141.66629246 40.23921239 -156.98339844 43.78613281 C-157.79593079 43.97404388 -158.60846313 44.16195496 -159.44561768 44.3555603 C-177.93708856 48.65054592 -196.16614596 53.74444388 -214.35839844 59.16113281 C-215.44362793 59.48178711 -216.52885742 59.80244141 -217.64697266 60.1328125 C-271.40922402 76.09212697 -322.92772616 97.77770196 -373.35839844 122.16113281 C-372.05491866 125.65682857 -370.46257504 128.89168321 -368.69140625 132.17285156 C-363.00750502 142.85696355 -363.00750502 142.85696355 -364.35839844 149.16113281 C-366.16436462 152.16009125 -368.17158998 154.56772858 -371.35839844 156.16113281 C-376.08250073 156.58105302 -378.53418639 155.93548796 -382.35839844 153.16113281 C-384.05249023 150.7512207 -384.05249023 150.7512207 -385.55761719 147.88378906 C-386.122146 146.82248779 -386.6866748 145.76118652 -387.26831055 144.66772461 C-387.85491455 143.53117432 -388.44151855 142.39462402 -389.04589844 141.22363281 C-389.66021729 140.05807861 -390.27453613 138.89252441 -390.9074707 137.69165039 C-395.04986129 129.81639618 -399.08414478 121.88327305 -402.99926758 113.89257812 C-404.75145455 110.32108188 -406.52833435 106.79755257 -408.52636719 103.35644531 C-414.43744163 93.13889946 -414.43744163 93.13889946 -413.93261719 87.03613281 C-412.95559095 83.84584305 -410.92131865 82.16146078 -408.35839844 80.16113281 C-407.86339844 79.66613281 -407.86339844 79.66613281 -407.35839844 79.16113281 C-400.36425111 78.5782872 -400.36425111 78.5782872 -396.92480469 80.57128906 C-393.31635114 84.21269652 -391.31853415 88.35239392 -389.04589844 92.91113281 C-388.59150391 93.79929687 -388.13710938 94.68746094 -387.66894531 95.60253906 C-386.55492547 97.78367265 -385.45190492 99.96966305 -384.35839844 102.16113281 C-379.48278619 100.76340249 -375.14185374 98.63533874 -370.62402344 96.38061523 C-303.69111608 63.06210777 -231.54761428 38.17911937 -158.61181641 21.89501953 C-155.39902005 21.17029599 -152.19297087 20.42061473 -148.98730469 19.66503906 C-123.6766318 13.76547251 -98.04939028 9.80060839 -72.29589844 6.41113281 C-71.14630142 6.25969315 -71.14630142 6.25969315 -69.97348022 6.10519409 C-54.55589829 4.08928708 -39.09920082 2.07487284 -23.54589844 1.59863281 C-21.72676982 1.53829474 -19.9077491 1.47459256 -18.08886719 1.40722656 C-17.31953857 1.38329834 -16.55020996 1.35937012 -15.75756836 1.3347168 C-13.29767907 1.2015954 -13.29767907 1.2015954 -10.66835022 0.66035461 C-7.06738756 0.11724124 -3.64171283 0.01940827 0 0 Z " fill="#FCFCFC" transform="translate(484.3583984375,657.8388671875)"/>
<path d="M0 0 C0.92683594 0.36738281 1.85367188 0.73476563 2.80859375 1.11328125 C21.8363166 9.50131512 32.29706744 26.36724698 40.17578125 44.7421875 C44.49344365 57.5519347 42.34022972 72.6657093 40.5 85.75 C39.28618898 94.39734247 38.6710403 102.89013184 38.625 111.625 C38.61146484 112.67397461 38.59792969 113.72294922 38.58398438 114.80371094 C38.61601793 120.24407687 38.80838315 124.36990795 42 129 C45.63913857 131.42609238 46.70133544 131.71644409 51 131 C52.54314853 129.89103484 54.04015496 128.71653753 55.5 127.5 C58.34475341 125.14291861 59.63976452 124.07476585 63.3125 123.3125 C66.66245725 124.16946581 67.93503805 125.2467174 70 128 C71.92970732 133.97166185 72.19147616 140.89161018 69.94140625 146.76171875 C66.12381446 153.51751127 61.07642025 159.00515605 54.0625 162.4375 C46.33970181 163.85597314 40.6178228 163.43367971 34 159 C23.77142413 151.49017199 20.28557175 143.04097805 17 131 C16.12859375 131.96679688 15.2571875 132.93359375 14.359375 133.9296875 C3.81792271 145.50680693 -6.32707832 155.78196466 -21 162 C-21.74636719 162.33902344 -22.49273437 162.67804688 -23.26171875 163.02734375 C-34.32107838 167.46335307 -46.28725695 165.36345019 -57 161 C-75.2980102 152.56784922 -88.60714073 138.26874214 -96.34765625 119.78125 C-104.37845907 96.52358448 -99.4524545 70.51415782 -88.953125 48.91845703 C-83.54773637 38.03845092 -77.18329586 28.95972303 -69 20 C-68.3709375 19.30003906 -67.741875 18.60007812 -67.09375 17.87890625 C-50.85449228 0.68214512 -22.77469952 -9.92353351 0 0 Z " fill="#FDFDFD" transform="translate(302,445)"/>
<path d="M0 0 C10.98985398 8.47562839 18.87781026 19.31453013 21.25 33.25 C21.56026427 36.75515702 21.61995337 40.23250142 21.625 43.75 C21.64949219 44.64847656 21.67398438 45.54695313 21.69921875 46.47265625 C21.72533853 52.45408625 20.94867336 57.3969125 17.25 62.25 C13.07527202 66.29737173 8.51490199 67.85949274 3.125 69.69140625 C1.75174057 70.172146 1.75174057 70.172146 0.35073853 70.66259766 C-2.67978304 71.72157926 -5.71483906 72.76689786 -8.75 73.8125 C-11.96142363 74.93080638 -15.17158778 76.05267717 -18.38168335 77.17478943 C-20.63424329 77.96200883 -22.88720162 78.74808908 -25.14053345 79.53309631 C-33.66078101 82.50495837 -42.15897003 85.53514994 -50.6484375 88.59375 C-52.47124237 89.25019753 -52.47124237 89.25019753 -54.33087158 89.91990662 C-59.11607498 91.64419423 -63.90077822 93.3698449 -68.68408203 95.09939575 C-72.00455265 96.29947489 -75.32636782 97.49576225 -78.6484375 98.69140625 C-80.14351334 99.23390015 -80.14351334 99.23390015 -81.66879272 99.78735352 C-82.57650421 100.11348633 -83.4842157 100.43961914 -84.41943359 100.77563477 C-85.60791397 101.20502098 -85.60791397 101.20502098 -86.82040405 101.64308167 C-88.75 102.25 -88.75 102.25 -90.75 102.25 C-85.76089421 113.54401969 -80.94400762 119.26802327 -69.75 124.25 C-46.26464897 132.28511482 -23.15596835 129.77955322 -0.734375 120.4375 C5.37419983 117.97903595 10.73202414 116.84280966 17.0625 119.375 C20.73844759 122.52581222 22.89025111 125.09150663 23.70703125 129.9921875 C24.07274001 136.67700338 23.06839989 141.10199177 18.9453125 146.4140625 C8.8230802 157.37592697 -13.8386658 159.41769991 -28.07421875 160.15625 C-29.89373047 160.20265625 -29.89373047 160.20265625 -31.75 160.25 C-33.04091553 160.28867187 -33.04091553 160.28867187 -34.35791016 160.328125 C-37.36361794 160.40877455 -40.36850433 160.45881841 -43.375 160.5 C-44.32930908 160.5215918 -45.28361816 160.54318359 -46.2668457 160.56542969 C-64.72109988 160.64807728 -79.90099639 151.63154206 -92.92578125 139.16796875 C-98.81647638 133.00275579 -103.05897595 125.88501547 -106.75 118.25 C-107.05776367 117.62609375 -107.36552734 117.0021875 -107.68261719 116.359375 C-118.06134535 94.27792958 -114.4700649 63.74521606 -106.5 41.375 C-105.62225909 39.3162986 -104.70367399 37.27464478 -103.75 35.25 C-103.34056152 34.36586426 -103.34056152 34.36586426 -102.92285156 33.46386719 C-95.73025686 18.1805969 -86.28018484 6.9571585 -71.75 -1.75 C-70.93015625 -2.25144531 -70.1103125 -2.75289063 -69.265625 -3.26953125 C-47.94176784 -15.1121432 -19.95067735 -13.87152359 0 0 Z " fill="#FDFDFD" transform="translate(802.75,448.75)"/>
<path d="M0 0 C0.93392578 -0.02900391 1.86785156 -0.05800781 2.83007812 -0.08789062 C13.78618914 -0.18673132 22.27577308 3.83947305 30.1875 11.3125 C36.68835729 18.63466474 38.51103679 24.38240856 38.375 34.0625 C38.3740332 35.34640625 38.3740332 35.34640625 38.37304688 36.65625 C38.26161353 52.99980697 38.26161353 52.99980697 33.1875 60.3125 C30.1875 62.3125 30.1875 62.3125 26.6875 62.375 C23.1875 61.3125 23.1875 61.3125 21.3125 58.5 C19.82523715 54.15538973 19.6891459 49.6392321 19.49609375 45.08203125 C19.18204295 42.26352467 18.78045031 40.64302216 17.1875 38.3125 C9.20035153 32.2942765 -3.3891478 33.20569149 -12.8125 34.3125 C-17.47785483 35.46234503 -21.54689208 37.12221621 -25.8125 39.3125 C-26.62847656 39.69664062 -27.44445312 40.08078125 -28.28515625 40.4765625 C-35.24173779 43.98468424 -41.44614686 48.8705318 -45.875 55.3125 C-47.45713969 60.37534701 -47.45932701 64.41006761 -45.75 69.4375 C-36.331738 83.41298554 -14.7279064 85.01856785 0.734375 88.2734375 C14.37892889 91.16487344 27.54148914 94.23944005 39.1875 102.3125 C40.115625 102.93125 41.04375 103.55 42 104.1875 C47.87818128 109.89773324 50.26304689 115.7960153 50.47949219 123.89697266 C50.55119202 131.24962014 50.16188944 136.90085432 46.1875 143.3125 C45.630625 144.323125 45.07375 145.33375 44.5 146.375 C32.50508342 161.61178592 11.43149017 170.70224487 -7.5703125 173.09765625 C-24.29718147 174.20606323 -43.1321846 174.43048022 -56.65234375 162.71875 C-62.47877821 156.45070315 -64.47023965 149.60824059 -64.234375 141.12890625 C-63.34089357 135.16409038 -60.3616317 130.39414572 -56.8125 125.625 C-54.8125 124.3125 -54.8125 124.3125 -52.4375 124.125 C-49.11968008 125.62591854 -47.72068704 127.66256516 -45.4765625 130.46484375 C-40.52284439 135.96509884 -33.68160394 138.86940909 -26.38452148 139.53344727 C-7.3479763 140.35822997 9.03763929 137.584137 26.1875 129.3125 C26.04339797 125.90375814 26.04339797 125.90375814 25.1875 122.3125 C23.2652757 120.51249548 23.2652757 120.51249548 20.6875 119.5625 C19.8728125 119.19640625 19.058125 118.8303125 18.21875 118.453125 C11.26862863 115.83787315 4.49339808 113.83464447 -2.8125 112.5 C-52.42945984 102.84123182 -52.42945984 102.84123182 -66.75 84.8828125 C-73.26528299 74.47645772 -72.23934773 60.28115254 -70.14453125 48.58203125 C-69.25676374 45.64735873 -68.1843794 43.05216364 -66.8125 40.3125 C-66.34972656 39.33667969 -65.88695312 38.36085938 -65.41015625 37.35546875 C-58.95697954 25.06445491 -48.8995537 15.94260445 -36.8125 9.3125 C-35.9565625 8.84199219 -35.100625 8.37148438 -34.21875 7.88671875 C-23.00158997 2.01848225 -12.60488163 0.12888427 0 0 Z " fill="#FDFDFD" transform="translate(457.8125,437.6875)"/>
<path d="M0 0 C4.87565281 4.59704408 7.47862021 9.77470699 7.8125 16.5 C7.45995775 23.68178933 4.47839971 29.95398363 -0.5 35.125 C-2.95679463 37.1833955 -4.18026003 37.95185801 -7.3125 38.5 C-11.11026809 38.02527899 -12.1082395 37.24263182 -15.1171875 35.05859375 C-21.70994765 30.99081015 -27.89390346 31.38451312 -35.4375 31.6875 C-36.72785156 31.71457031 -38.01820313 31.74164063 -39.34765625 31.76953125 C-42.50438627 31.83968081 -45.65752804 31.93793642 -48.8125 32.0625 C-48.75715088 33.34261963 -48.70180176 34.62273926 -48.64477539 35.94165039 C-47.62332896 59.68490614 -46.6412942 83.42270576 -46.15454102 107.18383789 C-45.98756943 115.01942267 -45.67713455 122.8221336 -45.17758179 130.64367676 C-44.86015021 135.78265062 -44.67817743 140.915134 -44.56640625 146.0625 C-44.54972397 146.80487915 -44.53304169 147.5472583 -44.51585388 148.31213379 C-44.44996745 151.32926092 -44.38723197 154.34636018 -44.33569336 157.36376953 C-44.18111285 168.28802956 -44.18111285 168.28802956 -42.2644043 179.01367188 C-41.37014238 183.06804572 -41.44372701 187.17776816 -41.4375 191.3125 C-41.41300781 192.18390625 -41.38851562 193.0553125 -41.36328125 193.953125 C-41.343955 198.17913241 -41.4309765 200.45017833 -43.7109375 204.109375 C-47.58173163 207.70676731 -50.93451777 207.40006785 -56.046875 207.33984375 C-59.94948363 206.94848046 -61.98491898 205.74870197 -64.8125 203.0625 C-67.90332728 197.94664795 -68.90773341 193.55656053 -69.08460999 187.65582275 C-69.11964127 186.55751129 -69.15467255 185.45919983 -69.19076538 184.3276062 C-69.22457306 183.12669342 -69.25838074 181.92578064 -69.29321289 180.68847656 C-69.3323732 179.41946503 -69.37153351 178.15045349 -69.41188049 176.84298706 C-69.51921514 173.35836648 -69.62099831 169.87360382 -69.72161031 166.38878345 C-69.82830439 162.7190475 -69.93944251 159.04944567 -70.0499115 155.37982178 C-70.23535476 149.19601177 -70.41719803 143.01210365 -70.59692383 136.828125 C-70.80292543 129.74153899 -71.01449816 122.65513676 -71.22921187 115.56880975 C-71.43705505 108.70470038 -71.64075848 101.84047368 -71.84271049 94.97618866 C-71.92792563 92.08208956 -72.01450245 89.18803641 -72.10228157 86.29401398 C-72.6187361 69.21292094 -72.94624292 52.15215595 -72.8125 35.0625 C-73.70018066 35.1955957 -74.58786133 35.32869141 -75.50244141 35.46582031 C-78.47826874 35.90978158 -81.45548308 36.34312599 -84.43359375 36.77148438 C-86.3812186 37.05432658 -88.32735989 37.34732613 -90.2734375 37.640625 C-113.40070599 40.9445205 -113.40070599 40.9445205 -121.8125 36.0625 C-124.2781856 34.02193261 -124.76907975 33.19276076 -125.8125 30.0625 C-126.36958813 22.92748662 -126.58034693 15.38397077 -122.8125 9.0625 C-117.14654082 3.24644919 -110.82518848 0.87111058 -102.71939087 0.76130676 C-101.56906876 0.76042305 -101.56906876 0.76042305 -100.39550781 0.75952148 C-99.57188751 0.75108215 -98.74826721 0.74264282 -97.89968872 0.73394775 C-95.18832791 0.70824922 -92.47707613 0.69604263 -89.765625 0.68359375 C-87.87000688 0.66740294 -85.97439699 0.6502213 -84.07879639 0.63209534 C-79.09159174 0.58646556 -74.10437565 0.55164596 -69.11706543 0.51989746 C-61.14971804 0.4679981 -53.18249376 0.40240829 -45.21529388 0.33168221 C-42.44474845 0.30903615 -39.67421795 0.29264041 -36.90362549 0.27696228 C-25.37174519 0.19490362 -10.90849925 -3.63616642 0 0 Z " fill="#FCFCFC" transform="translate(181.8125,400.9375)"/>
<path d="M0 0 C7.43944009 5.01173653 16.06051043 11.9296146 20.16015625 20.12890625 C21.49000209 39.13787917 14.625214 64.94946694 3.16015625 80.12890625 C2.34224609 81.23685547 2.34224609 81.23685547 1.5078125 82.3671875 C-5.15962707 90.69756494 -13.60379295 94.65216119 -23.90234375 96.75390625 C-38.26956814 98.12221333 -50.76775821 97.03560644 -62.5546875 88.046875 C-69.26375967 82.41584177 -75.83486092 76.72708943 -77.22021484 67.6315918 C-77.37701236 64.8886501 -77.39496516 62.1882107 -77.33984375 59.44140625 C-77.31954102 57.97948853 -77.31954102 57.97948853 -77.29882812 56.48803711 C-77.07936191 48.81246136 -76.00706383 42.18113001 -72.83984375 35.12890625 C-72.57671387 34.53561523 -72.31358398 33.94232422 -72.04248047 33.33105469 C-66.11557032 20.29654827 -57.58288153 9.12984728 -44.83984375 2.12890625 C-43.58494141 1.43861328 -43.58494141 1.43861328 -42.3046875 0.734375 C-28.297267 -6.59680888 -13.88990404 -7.8938031 0 0 Z " fill="#545454" transform="translate(302.83984375,479.87109375)"/>
<path d="M0 0 C3.69067366 3.12287772 6.67363837 6.53550748 8.4375 11.0625 C8.65593936 13.73483608 8.76224486 16.26812107 8.75 18.9375 C8.76611328 19.63230469 8.78222656 20.32710938 8.79882812 21.04296875 C8.80416998 26.71602019 7.43884097 30.54267691 3.9296875 34.9609375 C0.76255937 37.85266319 -1.7869067 39.52783183 -6.125 39.9375 C-9.05013926 39.75374762 -10.18484509 39.43333496 -12.29296875 37.36328125 C-13.8125 35.25 -13.8125 35.25 -15.078125 33.10546875 C-16.96127548 30.51365902 -18.70161509 29.50150496 -21.5625 28.0625 C-24.40492872 27.62209817 -24.40492872 27.62209817 -27.421875 27.69921875 C-29.09636719 27.70018555 -29.09636719 27.70018555 -30.8046875 27.70117188 C-31.96226562 27.71728516 -33.11984375 27.73339844 -34.3125 27.75 C-36.02566406 27.74516602 -36.02566406 27.74516602 -37.7734375 27.74023438 C-49.67084844 27.81544789 -60.10680589 29.64275496 -69.41796875 37.66015625 C-81.35063123 50.63577638 -83.20220979 68.72372285 -82.83259392 85.51052856 C-82.7757673 88.13531513 -82.74677217 90.75922804 -82.72425842 93.38452148 C-82.66353737 99.88926733 -82.56170166 106.39318703 -82.45233154 112.89727783 C-82.35995108 118.43140368 -82.28767655 123.96502389 -82.24386787 129.49975586 C-82.21542008 132.07287034 -82.15749792 134.64422705 -82.09861755 137.21679688 C-81.9665493 146.88034756 -82.65932043 152.65209496 -89.375 160.0625 C-92.77096655 161.61494185 -95.94915572 161.66820511 -99.5625 161.0625 C-103.68286015 159.19667654 -105.19431027 157.80671329 -107.20336914 153.74584961 C-109.26730247 147.84382084 -109.00984487 141.81393133 -108.99609375 135.62890625 C-109.00212928 134.29331577 -109.00900203 132.95772884 -109.01664734 131.62214661 C-109.03149836 128.03431215 -109.02367125 124.4468837 -109.00852203 120.85906219 C-108.99997813 118.61926768 -108.99684181 116.37951859 -108.99481201 114.13970947 C-108.95136334 85.26787084 -107.4989481 56.57321168 -104.81799316 27.81774902 C-104.65194215 26.02704791 -104.49170343 24.23579493 -104.33825684 22.44396973 C-104.13582717 20.09866927 -103.91178096 17.75658792 -103.6796875 15.4140625 C-103.55964355 14.14643066 -103.43959961 12.87879883 -103.31591797 11.57275391 C-102.25965451 6.65151089 -100.22448249 2.83910198 -96.75 -0.875 C-93.45303584 -2.47638259 -91.17507693 -2.44452834 -87.5625 -1.9375 C-83.8146244 0.97751436 -82.05067309 3.61800284 -80.5625 8.0625 C-80.24365234 10.6496582 -80.24365234 10.6496582 -80.1484375 13.36328125 C-80.10976563 14.33974609 -80.07109375 15.31621094 -80.03125 16.32226562 C-80.0003125 17.32966797 -79.969375 18.33707031 -79.9375 19.375 C-79.89882813 20.40173828 -79.86015625 21.42847656 -79.8203125 22.48632812 C-79.72635103 25.01154265 -79.6406846 27.53675592 -79.5625 30.0625 C-79.19495605 29.38751465 -78.82741211 28.7125293 -78.44873047 28.01708984 C-69.68064674 12.1724413 -53.20635659 0.6578267 -36.1875 -5.07421875 C-24.24806971 -7.9175529 -10.5773778 -6.46248769 0 0 Z " fill="#FDFDFD" transform="translate(970.5625,445.9375)"/>
<path d="M0 0 C4.05503446 3.29286558 6.85317081 5.83893544 8 11 C2.46382842 13.84360936 -3.10609771 16.36706357 -8.87890625 18.6875 C-9.71641922 19.02699677 -10.55393219 19.36649353 -11.41682434 19.71627808 C-14.13050661 20.81471831 -16.84628347 21.90784279 -19.5625 23 C-20.49096741 23.37417053 -21.41943481 23.74834106 -22.3760376 24.1338501 C-28.91271871 26.76754846 -35.45462081 29.38799917 -42 32 C-42.81261292 32.3244812 -43.62522583 32.6489624 -44.46246338 32.98327637 C-48.78297185 34.7067031 -53.10733997 36.419718 -57.43869019 38.11572266 C-59.31180123 38.85021812 -61.18243707 39.59101622 -63.05297852 40.33203125 C-70.26923948 43.13426555 -77.44139626 45.32317665 -85 47 C-84.44185676 30.88946559 -76.92459966 18.04639769 -65.40234375 6.98046875 C-46.24495342 -8.81269694 -22.00951298 -14.15439369 0 0 Z " fill="#555555" transform="translate(796,478)"/>
</svg>
